<?xml version="1.0" encoding="UTF-8"?>
<svg id="Layer_1" xmlns="http://www.w3.org/2000/svg" version="1.1" viewBox="0 0 64 64">
  <!-- Generator: Adobe Illustrator 29.8.2, SVG Export Plug-In . SVG Version: 2.1.1 Build 3)  -->
  <defs>
    <style>
      .st0 {
        fill: #231f20;
      }

      .st1 {
        fill: #fff;
      }
    </style>
  </defs>
  <rect class="st0" width="64" height="64" rx="12" ry="12"/>
  <g>
    <rect class="st1" x="20" y="16" width="4" height="4"/>
    <rect class="st1" x="24" y="16" width="4" height="4"/>
    <rect class="st1" x="28" y="16" width="4" height="4"/>
    <rect class="st1" x="32" y="16" width="4" height="4"/>
    <rect class="st1" x="36" y="16" width="4" height="4"/>
    <rect class="st1" x="40" y="16" width="4" height="4"/>
    <rect class="st1" x="20" y="20" width="4" height="4"/>
    <rect class="st1" x="24" y="20" width="4" height="4"/>
    <rect class="st1" x="28" y="20" width="4" height="4"/>
    <rect class="st1" x="32" y="20" width="4" height="4"/>
    <rect class="st1" x="36" y="20" width="4" height="4"/>
    <rect class="st1" x="40" y="20" width="4" height="4"/>
    <rect class="st1" x="12" y="24" width="4" height="4"/>
    <rect class="st1" x="16" y="24" width="4" height="4"/>
    <rect class="st1" x="20" y="24" width="4" height="4"/>
    <rect class="st1" x="24" y="24" width="4" height="4"/>
    <rect class="st1" x="44" y="24" width="4" height="4"/>
    <rect class="st1" x="48" y="24" width="4" height="4"/>
    <rect class="st1" x="12" y="28" width="4" height="4"/>
    <rect class="st1" x="16" y="28" width="4" height="4"/>
    <rect class="st1" x="20" y="28" width="4" height="4"/>
    <rect class="st1" x="24" y="28" width="4" height="4"/>
    <rect class="st1" x="44" y="28" width="4" height="4"/>
    <rect class="st1" x="48" y="28" width="4" height="4"/>
    <rect class="st1" x="20" y="32" width="4" height="4"/>
    <rect class="st1" x="24" y="32" width="4" height="4"/>
    <rect class="st1" x="36" y="32" width="4" height="4"/>
    <rect class="st1" x="40" y="32" width="4" height="4"/>
    <rect class="st1" x="20" y="36" width="4" height="4"/>
    <rect class="st1" x="24" y="36" width="4" height="4"/>
    <rect class="st1" x="36" y="36" width="4" height="4"/>
    <rect class="st1" x="40" y="36" width="4" height="4"/>
    <rect class="st1" x="28" y="40" width="4" height="4"/>
    <rect class="st1" x="32" y="40" width="4" height="4"/>
    <rect class="st1" x="28" y="44" width="4" height="4"/>
    <rect class="st1" x="32" y="44" width="4" height="4"/>
  </g>
</svg>